<svg width="70" height="60" viewBox="0 0 70 60" fill="none" xmlns="http://www.w3.org/2000/svg">
<path d="M66 49.49C66 49.49 71.97 43.24 67.09 31.17C62.21 19.1 52.87 17.37 52.87 17.37C52.87 17.37 41.36 10.52 39.95 7.90995C38.54 5.29995 32.24 1.39995 28.99 0.849953C25.74 0.299953 20.63 1.27995 19.44 0.849953C18.25 0.419953 5.99996 2.53995 4.88996 3.55995C3.65996 4.70995 0.149962 13.26 1.52996 17.27C2.82996 21.05 4.15996 29.07 6.95996 31.25C9.75996 33.43 12.31 40.38 14.12 41.78C14.06 42.19 22.1 49 26.93 50.79C28.78 52.04 39.41 56.27 41.48 56.54C43.55 56.81 46.76 58.93 49.95 58.93C53.13 58.93 63.52 52.31 66.02 49.49H66Z" fill="#D6A255" stroke="#99742C" stroke-miterlimit="10"/>
<path d="M68.86 42.4699C68.86 42.4699 57.36 51.4499 47.99 46.5999C38.62 41.7499 40.79 48.8399 40.79 48.8399C39.21 46.1599 37.27 44.3799 35.11 43.1999C34.22 42.1799 33.17 41.4799 31.67 41.6799C28.42 41.3799 26.51 40.1299 25.16 38.4999C24.74 37.7599 24.93 36.9199 25.48 35.9999C26.9 34.4199 27.23 33.3699 26.35 32.8899C23.94 32.2899 21.68 32.3799 19.65 33.6399C18.4 34.0299 17.56 33.3999 17.01 32.0099C15.27 27.5799 17.87 23.9799 3.26001 17.0999C2.32001 16.0599 1.71001 14.7299 1.34001 13.1899C0.43001 20.6199 4.49001 28.8299 6.94001 31.2399C10.18 34.6699 12.24 39.2799 14.1 41.7699C17.59 45.5199 21.8 48.5799 26.91 50.7799C31.66 53.4599 40.07 56.4899 41.46 56.5299C44.66 57.4299 47.86 59.1499 49.93 58.9199C51.5 59.1699 69.33 52.1599 68.86 42.4599V42.4699Z" fill="url(#paint0_radial_291_1030)"/>
<path d="M60.36 30.4299C61.23 32.9799 58.22 34.3299 56.52 32.4599C57.31 32.4199 58.23 32.5799 58.93 32.2599C59.52 32.0199 59.92 31.3099 60.36 30.4399V30.4299Z" fill="#99742C"/>
<path d="M48.4999 47.4399C49.2499 50.0099 45.8499 50.7799 44.3199 49.1999C46.0499 49.0599 47.6299 49.4199 48.4999 47.4399Z" fill="#99742C"/>
<path d="M25.18 33.4199C25.13 36.4599 21.24 36.1399 19.85 34.1699C21.8 34.5199 23.75 35.4699 25.18 33.4199Z" fill="#99742C"/>
<path d="M21.2301 18.1599C21.3901 21.1099 17.2901 21.4599 15.4301 20.0199C17.5601 19.8199 19.9201 20.3399 21.2301 18.1599Z" fill="#99742C"/>
<path d="M41.8 23.79C41.57 23.45 41.18 23.39 40.83 23.3C39.88 23.12 38.67 23.23 38.05 23.97C37.66 24.34 37.39 24.09 37.11 23.92C36.43 23.49 35.78 22.91 34.88 23.15C35.62 22.28 36.91 22.82 37.76 23.23C37.7 23.23 37.67 23.13 37.36 23.32L37.29 23.39C38.13 22.22 39.86 22.07 41.03 22.78C41.38 22.99 41.81 23.34 41.79 23.79H41.8Z" fill="#99742C"/>
<defs>
<radialGradient id="paint0_radial_291_1030" cx="0" cy="0" r="1" gradientUnits="userSpaceOnUse" gradientTransform="translate(35.04 36.0799) rotate(-180) scale(28.88 28.88)">
<stop offset="1" stop-color="#A7843F"/>
</radialGradient>
</defs>
</svg>
