<svg width="59" height="72" viewBox="0 0 59 72" fill="none" xmlns="http://www.w3.org/2000/svg">
<path d="M29.6 1.02002C29.3 11.45 -34.02 52.55 29.6 65.19V1.02002Z" fill="#F9F5BD" stroke="#C9C76B" stroke-miterlimit="10"/>
<path d="M29.6 65.19C-11.08 38.13 29.6 20.25 29.6 1.02002V65.19Z" fill="#F9F5BD" stroke="#C9C76B" stroke-miterlimit="10"/>
<path d="M29.6 65.18C93.22 52.54 29.9 11.44 29.6 1.01001V65.18Z" fill="#F9F5BD" stroke="#C9C76B" stroke-miterlimit="10"/>
<path d="M29.6 65.19C70.28 38.13 29.6 20.25 29.6 1.02002V65.19Z" fill="#F9F5BD" stroke="#C9C76B" stroke-miterlimit="10"/>
<path d="M29.25 65.19C43.57 33.1 29.17 23.49 29.25 1.02002C29.13 23.66 12.47 35.06 29.25 65.19Z" fill="#F9F5BD" stroke="#C9C76B" stroke-width="0.85" stroke-miterlimit="10"/>
<path d="M29.54 65.1899C28.3 65.8399 25.98 66.4999 22.59 67.1499L29.54 65.1899Z" fill="white"/>
<path d="M29.54 65.1899C28.3 65.8399 25.98 66.4999 22.59 67.1499" stroke="#7F7D21" stroke-width="0.65" stroke-miterlimit="10"/>
<path d="M29.54 65.1899C28.26 66.8399 26.46 68.0099 24.21 68.7899" stroke="#7F7D21" stroke-width="0.65" stroke-miterlimit="10"/>
<path d="M27.94 70.5799C28.64 68.9499 29.16 67.1399 29.55 65.1899" stroke="#7F7D21" stroke-width="0.65" stroke-miterlimit="10"/>
<path d="M31.17 70.9699C30.35 69.1099 29.82 67.1799 29.54 65.1799" stroke="#7F7D21" stroke-width="0.65" stroke-miterlimit="10"/>
<path d="M34.15 70.5799C32.16 68.8499 30.55 67.0599 29.54 65.1899" stroke="#7F7D21" stroke-width="0.65" stroke-miterlimit="10"/>
<path d="M36.08 66.9899C33.92 67.2599 31.73 66.4999 29.54 65.1899" stroke="#7F7D21" stroke-width="0.65" stroke-miterlimit="10"/>
</svg>
