<svg width="73" height="75" viewBox="0 0 73 75" fill="none" xmlns="http://www.w3.org/2000/svg">
<path d="M43.28 26.6201C42.76 29.8501 41.38 32.8401 38.34 35.3901C34.77 38.2001 16.3 38.4501 12.3 40.3301C3.92995 44.3701 0.719954 50.3301 1.48995 57.7801C4.23995 69.9601 13.08 74.3001 25.32 74.2901C39.06 73.1301 49.3 67.0701 57.41 58.0301C63.05 50.2001 66.4 41.5401 66.35 31.6501C68.39 18.3701 54.35 1.78012 43.29 26.6301L43.28 26.6201Z" fill="#924B97" stroke="#6A2383" stroke-miterlimit="10"/>
<path d="M51.7 17.3401C48.24 27.8401 43.23 27.2601 38 25.0001C44.81 21.9401 43.19 12.1501 54.94 11.7201C58.12 2.37006 61.6 0.840053 65.15 1.59005C62.01 3.37005 60.83 7.48005 61.49 13.7801C67.23 16.2301 69.46 21.5801 69.32 28.9101C69.24 30.7101 69.86 32.1101 70.77 33.3401C65.22 31.0501 60.7 27.71 59.71 20.74C58.22 28.31 55.95 34.7701 48.73 34.1901C49.84 33.3301 50.21 31.4501 49.75 28.4001C48.99 23.5401 49.89 20.0601 51.71 17.3401H51.7Z" fill="#78B942" stroke="#68A830" stroke-miterlimit="10"/>
<path d="M12.9799 44.4099C7.48994 48.3499 5.43993 52.7399 7.78993 59.2999C3.80993 53.4299 6.59994 46.8399 12.9799 44.4099Z" fill="#6A2383"/>
<path d="M49.5701 59.3C54.5901 55.18 58.3801 49.98 59.2001 43.46C60.2501 50.16 55.5701 56.74 49.5701 59.3Z" fill="#6A2383"/>
<path d="M14.1 65.3599C21.88 69.0699 29.64 69.6199 37.34 65.3599C30.81 71.2299 20.79 70.6899 14.1 65.3599Z" fill="#6A2383"/>
</svg>
