<svg width="72" height="74" viewBox="0 0 72 74" fill="none" xmlns="http://www.w3.org/2000/svg">
<path d="M0.979971 72.17C3.44997 68.7599 7.52997 67.4599 12.57 67.4299C19.41 69.1899 23.35 67.0799 25.59 62.2599C33.78 64.3099 38.42 61.6199 39.66 54.3799C46.82 54.2799 50.88 51.6499 51.93 46.5499C59.22 44.0599 62.06 39.5699 61.32 33.4699C68.15 30.3499 65.99 22.5199 59.68 13.1799L70.88 4.13995L68.51 0.699951L58.16 11.2499C53.27 12.7899 50.29 14.47 48.06 16.2C29.36 37.71 19.59 43.5299 8.95997 50.8599C3.02997 57.4999 -0.240034 64.52 0.989966 72.17H0.979971Z" fill="#A6CF94" stroke="#496048" stroke-width="0.63" stroke-miterlimit="10"/>
<path d="M0.97994 72.1701C0.97994 72.1701 5.32994 60.5101 7.27994 60.9701C34.7099 60.5101 57.0599 28.17 56.6599 15.55C49.3399 17.06 49.1199 27.6101 2.88994 59.7201C1.92994 62.0601 -0.31006 63.9801 0.97994 72.1701Z" fill="#78B942"/>
<mask id="mask0_295_1463" style="mask-type:luminance" maskUnits="userSpaceOnUse" x="0" y="15" width="57" height="58">
<path d="M0.97994 72.1701C0.97994 72.1701 5.32994 60.5101 7.27994 60.9701C34.7099 60.5101 57.0599 28.17 56.6599 15.55C49.3399 17.06 49.1199 27.6101 2.88994 59.7201C1.92994 62.0601 -0.31006 63.9801 0.97994 72.1701Z" fill="white"/>
</mask>
<g mask="url(#mask0_295_1463)">
<path d="M7.00994 68.3501C9.45104 68.3501 11.4299 66.1607 11.4299 63.4601C11.4299 60.7594 9.45104 58.5701 7.00994 58.5701C4.56884 58.5701 2.58994 60.7594 2.58994 63.4601C2.58994 66.1607 4.56884 68.3501 7.00994 68.3501Z" fill="#D4E7C4" stroke="#0E7132" stroke-width="0.55" stroke-miterlimit="10"/>
<path d="M15.2499 67.3399C18.652 67.3399 21.4099 64.2821 21.4099 60.5099C21.4099 56.7378 18.652 53.6799 15.2499 53.6799C11.8479 53.6799 9.08994 56.7378 9.08994 60.5099C9.08994 64.2821 11.8479 67.3399 15.2499 67.3399Z" fill="#D4E7C4" stroke="#0E7132" stroke-width="0.55" stroke-miterlimit="10"/>
<path d="M23.74 61.18C27.142 61.18 29.8999 58.1221 29.8999 54.35C29.8999 50.5779 27.142 47.52 23.74 47.52C20.3379 47.52 17.58 50.5779 17.58 54.35C17.58 58.1221 20.3379 61.18 23.74 61.18Z" fill="#D4E7C4" stroke="#0E7132" stroke-width="0.55" stroke-miterlimit="10"/>
<path d="M31.8099 56.0101C35.212 56.0101 37.9699 52.9522 37.9699 49.1801C37.9699 45.408 35.212 42.3501 31.8099 42.3501C28.4079 42.3501 25.6499 45.408 25.6499 49.1801C25.6499 52.9522 28.4079 56.0101 31.8099 56.0101Z" fill="#D4E7C4" stroke="#0E7132" stroke-width="0.55" stroke-miterlimit="10"/>
<path d="M39.6299 50.69C43.032 50.69 45.7899 47.6321 45.7899 43.86C45.7899 40.0879 43.032 37.03 39.6299 37.03C36.2279 37.03 33.4699 40.0879 33.4699 43.86C33.4699 47.6321 36.2279 50.69 39.6299 50.69Z" fill="#D4E7C4" stroke="#0E7132" stroke-width="0.55" stroke-miterlimit="10"/>
<path d="M45.7899 43.2601C49.192 43.2601 51.9499 40.2022 51.9499 36.4301C51.9499 32.658 49.192 29.6001 45.7899 29.6001C42.3879 29.6001 39.6299 32.658 39.6299 36.4301C39.6299 40.2022 42.3879 43.2601 45.7899 43.2601Z" fill="#D4E7C4" stroke="#0E7132" stroke-width="0.55" stroke-miterlimit="10"/>
<path d="M51.9599 36.43C55.362 36.43 58.1199 33.3721 58.1199 29.6C58.1199 25.8279 55.362 22.77 51.9599 22.77C48.5579 22.77 45.7999 25.8279 45.7999 29.6C45.7999 33.3721 48.5579 36.43 51.9599 36.43Z" fill="#D4E7C4" stroke="#0E7132" stroke-width="0.55" stroke-miterlimit="10"/>
</g>
<path d="M0.97994 72.1701C0.97994 72.1701 5.32994 60.5101 7.27994 60.9701C34.7099 60.5101 57.0599 28.17 56.6599 15.55C49.3399 17.06 49.1199 27.6101 2.88994 59.7201C1.92994 62.0601 -0.31006 63.9801 0.97994 72.1701Z" stroke="#0E7132" stroke-width="0.55" stroke-miterlimit="10"/>
</svg>
