<svg width="89" height="105" viewBox="0 0 89 105" fill="none" xmlns="http://www.w3.org/2000/svg">
<path d="M53.81 57.9701C53.81 57.9701 45.04 49.7701 46.65 46.5901C46.86 46.1701 48.4 46.3401 48.72 45.9701C49.27 45.3201 47.87 43.7301 48.41 43.0701C48.75 42.6501 50.69 42.3801 50.69 42.3801C50.69 42.3801 50.6 39.5501 51.47 38.9801C52.4 38.3701 55.02 39.1401 55.96 38.1501C56.9 37.1601 56.95 34.8901 57.88 34.0501C58.41 33.5701 60.11 33.5101 60.78 33.1801C62.2 32.4701 63.6 29.6401 65.04 28.9601C66.19 28.4101 68.83 29.1201 70.07 28.8101C72.09 28.3101 74.82 24.7401 76.86 24.3801C79.07 24.0001 81.68 27.3401 83.27 28.4001C84.21 29.0201 87.34 29.0501 88.02 29.9101C88.88 31.0101 87.47 34.0801 87.22 35.4701C87.06 36.3301 87.77 38.0801 87.23 38.8701C86.87 39.4001 85.01 39.5801 84.67 40.1101C84.33 40.6401 85.6 41.5801 85.51 42.1401C85.37 43.0601 82.77 44.2201 82.35 45.1201C82.07 45.7101 83.18 46.8101 82.93 47.4101C82.51 48.4301 79.08 48.9901 78.51 49.9801C78.12 50.6601 79.97 51.8501 79.62 52.5501C79 53.7801 74.92 53.6701 73.52 54.3901C72.71 54.8101 72.22 56.6401 71.36 56.9801C70.46 57.3401 68.8 56.0701 67.85 56.1901C67.24 56.2701 66.45 57.3701 65.86 57.5801C63.16 58.5601 53.82 57.9601 53.82 57.9601L53.81 57.9701Z" fill="#709F2E" stroke="#047634" stroke-miterlimit="10"/>
<path d="M35.8799 57.7799C35.8799 57.7799 21.1099 64.1599 17.5499 61.3199C17.0799 60.9499 17.9799 59.3799 17.6099 58.9099C16.9799 58.0999 14.2399 59.0099 13.5999 58.2099C13.1899 57.6999 13.6599 55.5499 13.6599 55.5499C13.6599 55.5499 9.82993 54.6399 9.43993 53.5199C9.01993 52.3099 11.1799 49.8199 10.2699 48.4699C9.35992 47.1199 6.32992 46.2599 5.61992 44.9799C5.20992 44.2499 5.85994 42.4299 5.69994 41.5999C5.35994 39.8399 2.17994 37.3599 1.88994 35.5899C1.64994 34.1699 3.73992 31.6399 3.86992 30.1999C4.07992 27.8899 0.479933 23.7199 0.879933 21.4299C1.31993 18.9599 6.92993 17.3799 9.02993 16.0699C10.2699 15.2999 11.6599 11.9899 13.1099 11.5799C14.9499 11.0599 18.4599 13.6399 20.2099 14.4099C21.2899 14.8799 23.9399 14.7499 24.7599 15.6099C25.3099 16.1799 24.7499 18.2099 25.3199 18.7599C25.8899 19.3099 27.6899 18.2999 28.3999 18.5899C29.5699 19.0699 29.9999 22.2299 31.0199 22.9999C31.6899 23.4999 33.6499 22.7299 34.3299 23.1999C35.5099 24.0099 34.7799 27.8399 35.8499 28.7899C36.5899 29.4499 38.9899 27.9099 39.7699 28.5199C41.1499 29.6099 39.2299 33.8999 39.5999 35.6399C39.8099 36.6499 42.0399 37.8199 42.1299 38.8399C42.2199 39.9199 39.8099 41.2299 39.5599 42.2799C39.3999 42.9599 40.5299 44.1799 40.5599 44.8799C40.7099 48.0899 35.8699 57.7699 35.8699 57.7699L35.8799 57.7799Z" fill="#709F2E" stroke="#047634" stroke-miterlimit="10"/>
<path d="M45.92 54.75C45.92 54.75 30.31 51.32 29.64 46.72C29.55 46.12 31.33 45.3 31.39 44.67C31.49 43.59 28.79 42.72 28.87 41.64C28.92 40.95 30.79 39.38 30.79 39.38C30.79 39.38 28.56 36.27 29.06 35.07C29.6 33.77 32.98 32.92 33.25 31.2C33.52 29.48 31.85 26.9 32.22 25.36C32.43 24.48 34.2 23.3 34.67 22.49C35.66 20.77 35.02 16.69 36.05 14.99C36.87 13.62 40.23 12.69 41.34 11.53C43.13 9.66001 43.37 3.87001 45.29 2.14001C47.37 0.270007 52.7 2.30001 55.2 2.44001C56.67 2.52001 60.06 0.500012 61.44 1.02001C63.19 1.69001 64 6.04 64.78 7.76C65.26 8.82 67.35 10.31 67.36 11.55C67.36 12.38 65.51 13.79 65.55 14.61C65.59 15.43 67.65 15.65 67.99 16.33C68.54 17.45 66.62 20.45 66.84 21.73C66.99 22.57 69.01 23.08 69.19 23.91C69.5 25.33 66.25 28.19 66.39 29.67C66.48 30.68 69.37 30.81 69.52 31.81C69.79 33.59 65.32 36.14 64.36 37.86C63.81 38.86 64.66 41.22 64 42.16C63.31 43.14 60.57 42.82 59.64 43.57C59.04 44.06 59.03 45.8 58.56 46.42C56.4 49.29 45.93 54.72 45.93 54.72L45.92 54.75Z" fill="#709F2E" stroke="#047634" stroke-miterlimit="10"/>
<path d="M11.54 27.17L41.53 66.46L49.74 66.9L74.2 36.78L45.77 65.78L51.28 13.77L42.69 63.86L11.54 27.17Z" fill="#9B2433" stroke="#4E0F10" stroke-miterlimit="10"/>
<path d="M59.71 78.72C59.71 86.67 54.46 93.3201 47.43 94.9901C46.32 95.25 38.57 104 38.57 104C38.57 104 43.99 96.88 40.1 95C34.36 92.22 28.25 85.82 28.25 78.72C28.25 69.52 35.29 62.05 43.98 62.05C52.67 62.05 59.71 69.51 59.71 78.72Z" fill="#9B2433" stroke="#4E0F10" stroke-miterlimit="10"/>
<path d="M28.6799 75.96C32.8199 77.17 35.5199 77.2299 38.2799 76.6499L28.6799 75.96Z" fill="#9B2433"/>
<path d="M28.6799 75.96C32.8199 77.17 35.5199 77.2299 38.2799 76.6499" stroke="#4E0F10" stroke-miterlimit="10"/>
<path d="M35.64 70.77C43.17 72.22 48.02 72.43 52.96 72.02L35.64 70.77Z" fill="#9B2433"/>
<path d="M35.64 70.77C43.17 72.22 48.02 72.43 52.96 72.02" stroke="#4E0F10" stroke-miterlimit="10"/>
<path d="M28.6799 82.9399C34.7099 84.2799 38.5999 84.4299 42.5799 83.9399L28.6799 82.9399Z" fill="#9B2433"/>
<path d="M28.6799 82.9399C34.7099 84.2799 38.5999 84.4299 42.5799 83.9399" stroke="#4E0F10" stroke-miterlimit="10"/>
<path d="M46.03 80.4399C52.04 81.7799 55.91 81.9199 59.87 81.4399L46.03 80.4399Z" fill="#9B2433"/>
<path d="M46.03 80.4399C52.04 81.7799 55.91 81.9199 59.87 81.4399" stroke="#4E0F10" stroke-miterlimit="10"/>
<path d="M47.16 88.28C51.04 89.47 53.57 89.51 56.16 88.93L47.16 88.28Z" fill="#9B2433"/>
<path d="M47.16 88.28C51.04 89.47 53.57 89.51 56.16 88.93" stroke="#4E0F10" stroke-miterlimit="10"/>
</svg>
