<svg width="63" height="62" viewBox="0 0 63 62" fill="none" xmlns="http://www.w3.org/2000/svg">
<path d="M18.2141 22.0675C16.5607 20.684 14.1886 20.5313 11.9273 20.649C11.9273 20.649 2.80367 20.2808 3.07922 17.1351C3.35477 13.9894 12.1063 15.8372 12.1063 15.8372C12.1063 15.8372 5.7392 9.58042 8.05223 7.57703C10.3653 5.57364 16.5753 11.8327 16.5753 11.8327C16.5753 11.8327 15.7086 4.57723 18.6785 4.75133C21.6485 4.92543 21.3843 8.53617 20.4835 13.9506C20.5236 15.3396 21.2878 16.7905 22.7761 18.3034C21.4235 19.0844 19.9385 20.2359 18.2141 22.0675Z" fill="#A6CF94" stroke="#496048" stroke-miterlimit="10"/>
<path d="M22.3076 21.6003C17.6165 18.6892 12.0673 17.69 6.75122 17.3577C11.9916 17.1025 17.9289 18.2228 22.3076 21.6003Z" fill="#496048"/>
<path d="M16.6685 30.0563C11.8202 24.4806 26.6894 11.0814 31.8302 16.9964C40.6265 27.165 49.1565 37.4662 55.7224 48.7474C58.7335 53.6939 55.3399 57.2091 49.3261 54.2567C35.6838 46.1156 24.2088 38.0305 16.6627 30.0621L16.6685 30.0563Z" fill="#F7A827" stroke="#936822" stroke-miterlimit="10"/>
<path d="M18.7721 18.0648C17.8291 14.5894 17.3923 10.9065 18.065 7.45821C17.9763 11.007 18.3998 14.504 18.7721 18.0648Z" fill="#496048"/>
<path d="M23.0148 36.4497C27.45 33.5229 29.9091 31.2327 32.0629 28.5273" stroke="#936820" stroke-miterlimit="10"/>
<path d="M39.9852 49.1777C43.5442 47.2302 45.3709 45.4945 46.843 43.3076" stroke="#936820" stroke-width="0.87" stroke-miterlimit="10"/>
<path d="M32.2072 37.1567C36.3496 34.3089 39.9741 31.4037 41.7831 28.3479" stroke="#936820" stroke-width="1.15" stroke-miterlimit="10"/>
<path d="M39.2782 41.3994C41.5153 39.1623 43.4288 37.2488 44.9351 35.7426" stroke="#936820" stroke-miterlimit="10"/>
</svg>
