<svg width="72" height="65" viewBox="0 0 72 65" fill="none" xmlns="http://www.w3.org/2000/svg">
<path d="M5.75005 39.3801C5.75005 39.3801 1.38005 37.2301 1.51005 35.9101C1.62005 34.7501 3.76005 32.5801 3.76005 32.5801C3.76005 32.5801 3.40005 31.1801 3.63005 30.2401C3.86005 29.3001 5.72005 26.4101 5.72005 26.4101C5.72005 26.4101 4.72005 22.6701 5.92005 21.3401C6.53005 20.6701 9.72005 20.0701 9.72005 20.0701C9.72005 20.0701 9.68005 17.2701 10.65 16.4101C11.85 15.3501 15.35 13.7701 15.35 13.7701L15.06 10.0901C15.06 10.0901 16.36 9.44007 16.82 8.99007C18.07 7.77007 21.91 8.24007 21.91 8.24007L24.57 5.01006C24.57 5.01006 27.52 2.79006 28.97 2.67006C30.9 2.52006 33.46 3.90006 33.46 3.90006C33.46 3.90006 36.5 1.73007 37.38 1.30007C38.56 0.720068 41.54 2.55006 42.27 2.01006C43.48 1.11006 45.62 1.03006 46.76 2.01006C47.41 2.57006 48.34 4.54006 48.34 4.54006C48.34 4.54006 51.44 5.57007 52.26 6.24007C52.77 6.66007 53.73 8.40006 53.73 8.40006C53.73 8.40006 55.2 9.61006 55.52 10.2301C55.89 10.9701 55.36 12.4101 55.36 12.4101C55.36 12.4101 60.07 13.5201 60.54 15.1701C60.76 15.9501 59.93 18.4201 59.93 18.4201C59.93 18.4201 63.93 18.4401 64.95 20.5601C65.59 21.8901 66.29 24.4301 66.29 24.4301L64.66 28.9001C64.66 28.9001 65.83 29.1601 66.57 29.8701C67.42 30.6901 68.53 32.7101 68.22 33.8101C67.82 35.2001 65.64 38.1401 65.64 38.1401L64.33 43.5701L58.46 46.1601L31.05 55.3501L5.76005 39.3801H5.75005Z" fill="#F3F1B7" stroke="#E8E561" stroke-miterlimit="10"/>
<path d="M26.29 16.1099L29.78 12.9399C30.56 12.2299 31.78 12.5099 32.13 13.4699L32.15 13.5099C32.51 14.4899 33.75 14.7599 34.52 14.0199L36.37 12.2599C37.06 11.5999 38.16 11.7299 38.63 12.5299L39.2 13.4999C39.63 14.2299 40.6 14.4199 41.31 13.8999L42.59 12.9699C43.41 12.3699 44.54 12.7299 44.83 13.6799C45.15 14.7299 46.47 15.0199 47.26 14.2299L47.49 13.9999C48.39 13.0999 49.88 13.6199 49.98 14.8599L50.09 16.2399" fill="#F4F4C6"/>
<path d="M26.29 16.1099L29.78 12.9399C30.56 12.2299 31.78 12.5099 32.13 13.4699L32.15 13.5099C32.51 14.4899 33.75 14.7599 34.52 14.0199L36.37 12.2599C37.06 11.5999 38.16 11.7299 38.63 12.5299L39.2 13.4999C39.63 14.2299 40.6 14.4199 41.31 13.8999L42.59 12.9699C43.41 12.3699 44.54 12.7299 44.83 13.6799C45.15 14.7299 46.47 15.0199 47.26 14.2299L47.49 13.9999C48.39 13.0999 49.88 13.6199 49.98 14.8599L50.09 16.2399" stroke="#E8E561" stroke-miterlimit="10"/>
<path d="M12.35 22.43L12.37 22.47C12.79 23.53 14.15 23.78 14.98 22.95L16.94 20.97C17.68 20.23 18.88 20.34 19.42 21.2L20.07 22.24C20.56 23.03 21.63 23.2 22.38 22.61L23.74 21.55C24.61 20.87 25.86 21.22 26.21 22.25C26.6 23.38 28.04 23.66 28.88 22.77L29.12 22.52" fill="#F4F4C6"/>
<path d="M12.35 22.43L12.37 22.47C12.79 23.53 14.15 23.78 14.98 22.95L16.94 20.97C17.68 20.23 18.88 20.34 19.42 21.2L20.07 22.24C20.56 23.03 21.63 23.2 22.38 22.61L23.74 21.55C24.61 20.87 25.86 21.22 26.21 22.25C26.6 23.38 28.04 23.66 28.88 22.77L29.12 22.52" stroke="#E8E561" stroke-miterlimit="10"/>
<path d="M39.38 30.0401L42.69 27.2501C43.43 26.6301 44.54 26.9201 44.83 27.8201V27.8601C45.14 28.7701 46.27 29.0601 47 28.4101L48.76 26.8601C49.42 26.2801 50.42 26.4401 50.83 27.1901L51.32 28.1001C51.69 28.7901 52.57 28.9901 53.24 28.5401L54.44 27.7301C55.21 27.2101 56.24 27.5801 56.47 28.4601C56.73 29.4301 58.89 28.8501 58.89 28.8501" fill="#F4F4C6"/>
<path d="M39.38 30.0401L42.69 27.2501C43.43 26.6301 44.54 26.9201 44.83 27.8201V27.8601C45.14 28.7701 46.27 29.0601 47 28.4101L48.76 26.8601C49.42 26.2801 50.42 26.4401 50.83 27.1901L51.32 28.1001C51.69 28.7901 52.57 28.9901 53.24 28.5401L54.44 27.7301C55.21 27.2101 56.24 27.5801 56.47 28.4601C56.73 29.4301 58.89 28.8501 58.89 28.8501" stroke="#E8E561" stroke-miterlimit="10"/>
<path d="M69.53 19.9199C67.26 19.7099 65.12 19.9199 64.64 20.5299L66.79 25.4399L69.52 19.9199H69.53Z" fill="#A6CF94" stroke="#496048" stroke-miterlimit="10"/>
<path d="M66.34 46.2699C66.34 46.2699 70.29 43.1099 71.04 41.1899C71.92 40.1099 66.79 30.3999 69.53 19.9199C68.02 19.9199 65.79 29.0899 65.79 29.0899C55.97 39.7199 58.23 44.4299 66.34 46.2699Z" fill="#A6CF94" stroke="#496048" stroke-miterlimit="10"/>
<path d="M1.33997 20.5101C4.37997 20.2601 7.20997 21.6601 9.95997 23.7101L8.06997 28.7901L1.33997 20.5101Z" fill="#A6CF94" stroke="#496048" stroke-miterlimit="10"/>
<path d="M16.09 58.03C13.05 57.69 10.6 55.66 8.74004 51.97C8.74004 51.97 9.41004 48.13 8.74004 45C8.07004 41.87 2.11004 38.17 1.34004 34.97C0.570045 31.77 4.24004 29.43 4.71004 27.82C5.18004 26.21 2.94004 22.91 1.34004 20.5C4.33004 21.79 8.95004 27.36 8.07004 28.78C5.25004 32.62 7.10004 37.18 10.78 41.18C30.09 44.62 30.79 50.37 16.09 58.02V58.03Z" fill="#A6CF94" stroke="#496048" stroke-miterlimit="10"/>
<path d="M19.56 61.3401C19.56 61.3401 26.33 63.6101 30.11 63.6401C33.89 63.6701 42.85 63.6401 42.85 63.6401C40.76 62.4401 40.49 61.4801 41.26 60.6501C41.87 59.2301 44.64 60.5301 44.64 58.9201C44.64 57.3101 40.66 55.8101 40.66 55.8101C37.48 54.5101 38.79 53.0501 44.64 51.4401C50.25 50.3001 46.28 47.8201 39.86 45.0001C38.56 43.7801 41.85 42.2401 42.05 41.0901C41.42 39.2001 38.94 38.3401 34.48 38.5601C28.94 37.4101 38.66 35.2201 38.66 32.8101C38.66 30.4001 32.09 28.1301 26.51 28.0901C21.29 28.3901 19.78 29.8301 19.54 31.6601C19.54 31.6601 20.14 34.1901 19.54 35.0001C18.94 35.8101 14.36 36.5001 14.36 36.5001C11.3 37.6001 10.5 39.3401 10.58 41.3301C10.55 42.6501 12.19 43.9901 10.58 46.8501C10.38 48.1101 11.31 49.6301 14.16 51.5701C16.88 52.7501 17.38 54.0801 16.95 55.4801C14.89 58.1601 16.63 59.9001 19.54 61.3501L19.56 61.3401Z" fill="#A6CF94" stroke="#496048" stroke-miterlimit="10"/>
<path d="M39.99 63.7501C46.57 64.1101 48.16 62.2101 51.39 61.0601C57.23 60.8501 61.49 59.6501 64.57 57.6901C66.9 56.2101 64.17 53.4001 64.57 51.3001C64.97 49.2001 70.63 47.3901 70.63 45.0701C70.63 42.7501 68.14 37.7501 68.14 37.7501C67.34 35.3001 68.13 32.3101 69.57 29.0801C70.15 23.0201 66.49 27.5901 62.44 33.1201C59.18 34.1501 56.56 33.5001 55.31 33.6201C54.06 33.7401 53.71 38.7501 51.92 39.6801C50.13 40.6101 49.25 38.3801 46.22 39.1801C43.19 39.9801 45.2 44.3201 41.59 45.9101C36.6 48.2701 35.41 50.4001 38.03 52.3001C40.53 54.1201 41.56 55.6001 41.59 56.8401C41.79 57.9201 34.64 58.3301 39.99 63.7401V63.7501Z" fill="#A6CF94" stroke="#496048" stroke-miterlimit="10"/>
<path d="M33.66 63.6599C20.61 54.8299 17.09 45.7699 24.68 36.4399L33.66 63.6599Z" fill="#A6CF94"/>
<path d="M33.66 63.6599C20.61 54.8299 17.09 45.7699 24.68 36.4399" stroke="#496048" stroke-miterlimit="10"/>
<path d="M20.73 46.9C17.94 46.12 16.07 44.49 15.14 42.01L20.73 46.9Z" fill="#A6CF94"/>
<path d="M20.73 46.9C17.94 46.12 16.07 44.49 15.14 42.01" stroke="#496048" stroke-miterlimit="10"/>
<path d="M21.45 50.05C23.16 47.12 25.9499 45.82 29.6299 45.87L21.45 50.05Z" fill="#A6CF94"/>
<path d="M21.45 50.05C23.16 47.12 25.9499 45.82 29.6299 45.87" stroke="#496048" stroke-miterlimit="10"/>
<path d="M26.32 57.6601C23.87 57.5401 21.43 56.4301 18.98 54.3201L26.32 57.6601Z" fill="#A6CF94"/>
<path d="M26.32 57.6601C23.87 57.5401 21.43 56.4301 18.98 54.3201" stroke="#496048" stroke-miterlimit="10"/>
<path d="M29.64 60.6799C28.07 57.6599 29.97 55 31.39 54.21L29.64 60.6799Z" fill="#A6CF94"/>
<path d="M29.64 60.6799C28.07 57.6599 29.97 55 31.39 54.21" stroke="#496048" stroke-miterlimit="10"/>
<path d="M43.99 63.66C61.73 54 65.9 45.4 64.75 37.23L43.99 63.66Z" fill="#A6CF94"/>
<path d="M43.99 63.66C61.73 54 65.9 45.4 64.75 37.23" stroke="#496048" stroke-miterlimit="10"/>
<path d="M54.46 56.9301C55.53 54.3101 55.89 51.8701 53.66 50.1201L54.46 56.9301Z" fill="#A6CF94"/>
<path d="M54.46 56.9301C55.53 54.3101 55.89 51.8701 53.66 50.1201" stroke="#496048" stroke-miterlimit="10"/>
<path d="M61.05 50.4401C63.48 50.0701 65.57 49.3801 67.25 48.6101L61.05 50.4401Z" fill="#A6CF94"/>
<path d="M61.05 50.4401C63.48 50.0701 65.57 49.3801 67.25 48.6101" stroke="#496048" stroke-miterlimit="10"/>
<path d="M60.67 45.01C60.41 42.72 60.14 40.46 59.3 39.27L60.67 45.01Z" fill="#A6CF94"/>
<path d="M60.67 45.01C60.41 42.72 60.14 40.46 59.3 39.27" stroke="#496048" stroke-miterlimit="10"/>
</svg>
