<svg width="64" height="55" viewBox="0 0 64 55" fill="none" xmlns="http://www.w3.org/2000/svg">
<path d="M42.3593 46.6449C36.327 39.4004 51.936 23.685 56.4514 32.3473L42.3593 46.6449Z" fill="#78B942" stroke="#0E7132" stroke-width="0.87" stroke-miterlimit="10"/>
<path d="M44.1811 47.7223C44.1811 57.5045 66.418 54.4777 62.5476 46.2124L44.1811 47.7223Z" fill="#78B942" stroke="#0E7132" stroke-width="0.87" stroke-miterlimit="10"/>
<path d="M53.2829 52.4079C58.3996 52.4079 62.5476 49.8277 62.5476 46.6449C62.5476 43.462 58.3996 40.8818 53.2829 40.8818C48.1661 40.8818 44.0181 43.462 44.0181 46.6449C44.0181 49.8277 48.1661 52.4079 53.2829 52.4079Z" fill="#D4E7C4" stroke="#0E7132" stroke-width="0.87" stroke-miterlimit="10"/>
<path d="M53.4295 42.9903C57.0525 38.7378 58.2309 33.7921 56.0614 31.9438C53.8919 30.0955 49.1962 32.0445 45.5732 36.297C41.9502 40.5495 40.7719 45.4952 42.9413 47.3435C45.1108 49.1918 49.8065 47.2428 53.4295 42.9903Z" fill="#D4E7C4" stroke="#0E7132" stroke-width="0.87" stroke-miterlimit="10"/>
<path d="M51.9531 37.0555C52.1132 36.5272 51.9788 36.0189 51.6528 35.9201C51.3269 35.8213 50.9328 36.1695 50.7727 36.6978C50.6126 37.226 50.7471 37.7344 51.073 37.8332C51.399 37.9319 51.793 37.5838 51.9531 37.0555Z" fill="#89BD27" stroke="#0E7132" stroke-width="0.87" stroke-miterlimit="10"/>
<path d="M49.4312 39.0606C49.6313 38.785 49.4314 38.2986 48.9847 37.9743C48.538 37.65 48.0137 37.6106 47.8135 37.8862C47.6134 38.1618 47.8134 38.6482 48.26 38.9725C48.7067 39.2968 49.2311 39.3362 49.4312 39.0606Z" fill="#89BD27" stroke="#0E7132" stroke-width="0.87" stroke-miterlimit="10"/>
<path d="M52.2832 40.5818C52.409 40.2652 52.0951 39.8434 51.5821 39.6396C51.0691 39.4358 50.5513 39.5271 50.4255 39.8436C50.2998 40.1602 50.6137 40.582 51.1267 40.7858C51.6397 40.9897 52.1575 40.8983 52.2832 40.5818Z" fill="#89BD27" stroke="#0E7132" stroke-width="0.87" stroke-miterlimit="10"/>
<path d="M49.3058 41.8599C49.5486 41.3641 49.4974 40.8408 49.1915 40.691C48.8856 40.5412 48.4409 40.8217 48.1981 41.3174C47.9553 41.8132 48.0065 42.3365 48.3124 42.4863C48.6183 42.6361 49.0631 42.3556 49.3058 41.8599Z" fill="#89BD27" stroke="#0E7132" stroke-width="0.87" stroke-miterlimit="10"/>
<path d="M56.0409 44.735C56.0881 44.3977 55.6832 44.0622 55.1366 43.9857C54.5899 43.9092 54.1084 44.1205 54.0612 44.4579C54.014 44.7952 54.4189 45.1307 54.9655 45.2072C55.5122 45.2837 55.9937 45.0723 56.0409 44.735Z" fill="#89BD27" stroke="#0E7132" stroke-width="0.87" stroke-miterlimit="10"/>
<path d="M55.8824 48.2706C56.1555 48.0671 56.1096 47.5433 55.7798 47.1007C55.45 46.658 54.9612 46.4642 54.6881 46.6677C54.4149 46.8712 54.4609 47.395 54.7907 47.8376C55.1205 48.2802 55.6093 48.4741 55.8824 48.2706Z" fill="#89BD27" stroke="#0E7132" stroke-width="0.87" stroke-miterlimit="10"/>
<path d="M53.363 47.5259C53.4161 46.9764 53.1843 46.5045 52.8453 46.4717C52.5063 46.4389 52.1884 46.8578 52.1353 47.4072C52.0822 47.9567 52.314 48.4287 52.653 48.4614C52.992 48.4942 53.3099 48.0753 53.363 47.5259Z" fill="#89BD27" stroke="#0E7132" stroke-width="0.87" stroke-miterlimit="10"/>
<path d="M1.1959 12.0243C-0.590421 0.526569 10.248 -1.81975 17.0956 4.24808C25.212 12.5063 34.7178 19.283 46.9952 23.0966C49.618 24.5923 50.3623 26.9457 49.5188 30.0151C43.6352 33.6444 40.9132 37.8905 40.4667 42.5831C28.1467 43.5401 4.13766 26.0384 1.1959 12.0243Z" fill="#78B942" stroke="#0E7132" stroke-width="0.87" stroke-miterlimit="10"/>
<path d="M40.729 42.5831C26.3179 35.3031 50.3341 10.9184 50.3341 30.2348C45.5493 32.5669 42.2672 36.8697 40.729 42.5831Z" fill="#D4E7C4" stroke="#0E7132" stroke-width="0.87" stroke-miterlimit="10"/>
<path d="M42.3376 31.3519C42.3845 30.3076 42.0927 29.4463 41.686 29.4281C41.2792 29.4098 40.9115 30.2415 40.8647 31.2858C40.8178 32.33 41.1095 33.1913 41.5163 33.2096C41.923 33.2278 42.2907 32.3961 42.3376 31.3519Z" fill="#89BD27" stroke="#0E7132" stroke-width="0.87" stroke-miterlimit="10"/>
<path d="M45.2953 31.1971C45.8112 30.7405 46.0465 30.1635 45.8208 29.9085C45.5951 29.6534 44.9938 29.8168 44.4778 30.2735C43.9619 30.7301 43.7266 31.3071 43.9523 31.5622C44.178 31.8172 44.7793 31.6538 45.2953 31.1971Z" fill="#89BD27" stroke="#0E7132" stroke-width="0.87" stroke-miterlimit="10"/>
<path d="M43.0753 35.0691C43.3767 35.0691 43.6211 34.574 43.6211 33.9632C43.6211 33.3525 43.3767 32.8574 43.0753 32.8574C42.7738 32.8574 42.5295 33.3525 42.5295 33.9632C42.5295 34.574 42.7738 35.0691 43.0753 35.0691Z" fill="#89BD27" stroke="#0E7132" stroke-width="0.87" stroke-miterlimit="10"/>
<path d="M40.7927 36.8767C41.1294 36.8767 41.4023 36.3245 41.4023 35.6433C41.4023 34.9621 41.1294 34.4099 40.7927 34.4099C40.456 34.4099 40.1831 34.9621 40.1831 35.6433C40.1831 36.3245 40.456 36.8767 40.7927 36.8767Z" fill="#89BD27" stroke="#0E7132" stroke-width="0.87" stroke-miterlimit="10"/>
<path d="M11.5098 5.50269C13.367 8.62875 15.2313 10.4151 17.0885 10.8687" stroke="#0E7132" stroke-width="0.87" stroke-miterlimit="10"/>
<path d="M19.8247 13.2148C22.6176 16.1779 25.3184 18.1769 27.934 19.3181" stroke="#0E7132" stroke-width="0.87" stroke-miterlimit="10"/>
<path d="M30.7767 21.8135C33.5979 23.4155 36.1144 24.4788 38.248 24.897" stroke="#0E7132" stroke-width="0.87" stroke-miterlimit="10"/>
<path d="M5.71851 10.2664C6.98736 12.9175 8.88001 14.6471 10.9853 16.0577" stroke="#0E7132" stroke-width="0.87" stroke-miterlimit="10"/>
<path d="M14.3027 20.0554C16.0111 22.7633 18.9032 24.9324 22.4617 26.7896" stroke="#0E7132" stroke-width="0.87" stroke-miterlimit="10"/>
<path d="M25.4247 28.7957C28.1255 31.4043 30.8192 32.7227 33.5199 32.7724" stroke="#0E7132" stroke-width="0.87" stroke-miterlimit="10"/>
<path d="M12.0627 20.2397C10.1771 19.7223 9.53207 20.2964 10.1275 21.9552" stroke="#0E7132" stroke-width="0.87" stroke-miterlimit="10"/>
<path d="M17.0885 14.9377C15.3943 14.4486 14.7068 15.0582 15.0186 16.7666" stroke="#0E7132" stroke-width="0.87" stroke-miterlimit="10"/>
<path d="M21.7174 10.4294C20.0233 9.9403 19.3357 10.5499 19.6476 12.2583" stroke="#0E7132" stroke-width="0.87" stroke-miterlimit="10"/>
<path d="M23.0997 30.7663C20.002 29.7597 21.1078 32.5456 21.2071 32.7653" stroke="#0E7132" stroke-width="0.87" stroke-miterlimit="10"/>
<path d="M27.9341 24.011C24.8364 23.0044 25.9422 25.7902 26.0414 26.0099" stroke="#0E7132" stroke-width="0.87" stroke-miterlimit="10"/>
<path d="M7.88763 5.43185C4.78992 4.42527 5.89573 7.21108 5.99497 7.43083" stroke="#0E7132" stroke-width="0.87" stroke-miterlimit="10"/>
<path d="M32.4211 18.4747C30.7624 17.9217 30.2024 18.4321 30.7908 20.0483" stroke="#0E7132" stroke-width="0.87" stroke-miterlimit="10"/>
<path d="M2.1884 5.50269C-4.085 18.5031 24.1488 42.3917 39.6019 42.3137C37.9149 41.137 37.128 40.2084 36.4617 38.8261C19.6688 38.4717 0.465871 18.7725 2.1884 5.50269Z" fill="#599832"/>
</svg>
