<?xml version="1.0" encoding="UTF-8"?><svg id="Layer_2" xmlns="http://www.w3.org/2000/svg" viewBox="0 0 141.44 20.26"><defs><style>.cls-1{fill:#1d1d1b;}</style></defs><g id="Layer_3"><path class="cls-1" d="m134.52,3.39s-.24-2.36,1.96-3.04c2.7-.83,3.39,0,4.84.76.18.1.17.23-.02.3-1.81.67-1.34,1.4-2.9,1.98-1.23.57-3.66.26-3.66.26l-.21-.26Z"/><path class="cls-1" d="m0,5.27c0-.61.12-1.18.35-1.71.23-.53.55-1,.95-1.4s.87-.72,1.4-.95,1.1-.35,1.71-.35h6.75v2.94h-6.75c-.21,0-.4.04-.57.11-.18.08-.33.18-.47.31s-.24.29-.31.47c-.08.18-.11.37-.11.57s.04.4.11.58c.07.18.18.34.31.47.13.13.29.24.47.31.18.08.37.11.57.11h2.94c.61,0,1.18.11,1.72.34.54.23,1,.54,1.4.94.4.4.71.87.94,1.4.23.54.34,1.11.34,1.72s-.11,1.18-.34,1.71c-.23.53-.54,1-.94,1.4s-.87.72-1.4.95c-.54.23-1.11.35-1.72.35H.82v-2.94h6.53c.21,0,.4-.04.57-.11s.33-.18.47-.31c.13-.13.24-.29.31-.47s.11-.37.11-.57-.04-.4-.11-.57-.18-.33-.31-.47c-.13-.13-.29-.24-.47-.31s-.37-.11-.57-.11h-2.94c-.61,0-1.18-.12-1.71-.35-.53-.23-1-.55-1.4-.95-.4-.4-.72-.87-.95-1.4-.23-.54-.35-1.11-.35-1.72Z"/><path class="cls-1" d="m17.76,12.88c.11.03.22.06.33.07.11.01.22.02.33.02.27,0,.54-.04.79-.11.25-.08.49-.18.71-.32.22-.14.42-.31.59-.51.17-.2.32-.43.43-.67l2.05,2.06c-.26.37-.56.7-.9,1-.34.29-.7.54-1.1.75-.39.21-.81.36-1.24.47-.43.11-.88.16-1.34.16-.77,0-1.5-.14-2.18-.43-.68-.29-1.28-.69-1.78-1.2-.51-.51-.91-1.12-1.21-1.83-.29-.71-.44-1.48-.44-2.33s.15-1.66.44-2.38c.29-.72.7-1.33,1.21-1.84.51-.51,1.1-.9,1.78-1.18.68-.28,1.41-.42,2.18-.42.46,0,.91.05,1.34.16s.85.27,1.25.47c.39.21.76.46,1.1.75.34.3.64.63.9,1l-5.25,6.33Zm1.44-5.77c-.13-.05-.26-.08-.38-.09-.13-.01-.26-.02-.39-.02-.38,0-.74.07-1.08.21-.34.14-.63.34-.88.6-.25.26-.45.57-.59.94-.14.37-.21.78-.21,1.24,0,.1,0,.22.02.35,0,.13.03.26.05.4.02.13.05.26.09.38.03.12.08.23.13.33l3.26-4.33Z"/><path class="cls-1" d="m27.21,15.57h-2.8V4.59h.68l.92,1.07c.45-.41.96-.73,1.53-.95.57-.22,1.17-.33,1.79-.33.67,0,1.3.13,1.9.38.6.26,1.11.61,1.56,1.06.44.45.79.97,1.05,1.57.26.6.38,1.24.38,1.91v6.28h-2.8v-6.28c0-.29-.05-.56-.16-.82-.11-.26-.26-.48-.45-.67s-.41-.34-.67-.45c-.25-.11-.52-.16-.81-.16s-.57.05-.83.16c-.26.11-.49.26-.68.45s-.34.42-.45.67c-.11.26-.16.53-.16.82v6.28Z"/><path class="cls-1" d="m42.25,15.57h-6.4v-2.79h6.4c.19,0,.36-.07.49-.21s.21-.3.21-.49-.07-.33-.21-.39-.3-.09-.49-.09h-2.91c-.49,0-.94-.09-1.36-.28-.42-.18-.79-.44-1.11-.75-.32-.32-.56-.69-.74-1.11-.18-.42-.27-.88-.27-1.36s.09-.94.27-1.36c.18-.42.43-.79.74-1.11.31-.31.68-.56,1.11-.74.42-.18.88-.27,1.36-.27h5.67v2.79h-5.67c-.19,0-.36.07-.49.21s-.21.3-.21.49.07.37.21.51c.14.14.3.21.49.21h2.91c.48,0,.93.08,1.35.24.42.16.79.38,1.11.67s.56.63.75,1.04c.19.4.28.84.28,1.32s-.09.94-.28,1.36c-.18.42-.43.79-.75,1.11-.31.32-.68.57-1.11.75-.42.18-.88.27-1.35.27Z"/><path class="cls-1" d="m57.83,9.98c0,.82-.15,1.58-.44,2.29-.29.71-.69,1.32-1.2,1.84-.51.52-1.1.92-1.78,1.22-.68.3-1.41.45-2.19.45s-1.5-.15-2.18-.45c-.68-.3-1.28-.7-1.78-1.22-.51-.52-.91-1.13-1.21-1.84-.29-.71-.44-1.47-.44-2.29s.15-1.61.44-2.32c.29-.71.7-1.32,1.21-1.84.51-.52,1.1-.92,1.78-1.21.68-.29,1.41-.44,2.18-.44s1.51.14,2.19.42c.68.28,1.27.67,1.78,1.18.5.51.91,1.12,1.2,1.83.29.71.44,1.51.44,2.38Zm-2.82,0c0-.45-.07-.86-.22-1.23-.15-.37-.35-.68-.6-.94-.25-.26-.55-.46-.89-.61-.34-.14-.7-.21-1.08-.21s-.74.07-1.08.21c-.34.14-.63.34-.88.61-.25.26-.45.58-.59.94-.14.37-.22.77-.22,1.23,0,.42.07.82.22,1.18.14.36.34.68.59.94.25.27.54.48.88.63.34.15.7.23,1.08.23s.74-.07,1.08-.22c.34-.14.63-.34.89-.6s.45-.57.6-.94c.15-.37.22-.78.22-1.22Z"/><path class="cls-1" d="m62.18,15.57h-2.8V4.59h.68l.92,1.3c.45-.41.96-.73,1.54-.95.57-.22,1.17-.33,1.78-.33h2.47v2.79h-2.47c-.29,0-.57.05-.83.16-.26.11-.49.26-.68.45s-.34.42-.45.68c-.11.26-.16.54-.16.83v6.05Z"/><path class="cls-1" d="m69.92,15.57c-.75-.19-1.4-.44-1.95-.75l.26-2.88c.64.4,1.32.71,2.03.94.71.22,1.37.33,1.97.33.69,0,1.25-.14,1.68-.43s.65-.67.65-1.14c0-.39-.14-.68-.43-.89-.29-.21-.74-.43-1.35-.68l-.52-.21c-.07-.03-.15-.06-.24-.1-.09-.04-.19-.08-.3-.12-.8-.33-1.45-.64-1.94-.94s-.91-.71-1.26-1.24-.53-1.22-.53-2.06c0-1.38.47-2.46,1.4-3.25s2.23-1.18,3.89-1.18c1.26,0,2.55.26,3.87.77l-.47,2.84c-.53-.3-1.1-.54-1.71-.71s-1.19-.26-1.73-.26c-.67,0-1.2.13-1.57.4-.37.27-.56.62-.56,1.06,0,.39.13.69.39.9.26.21.67.44,1.25.69l.88.34c.83.32,1.52.62,2.06.92.54.3,1.01.74,1.4,1.3.39.57.58,1.3.58,2.2,0,1.39-.47,2.47-1.42,3.25-.95.77-2.26,1.16-3.96,1.16-.83,0-1.62-.09-2.38-.28Z"/><path class="cls-1" d="m80.04,4.5h2.95l-.06,1.44h.09c.37-.57.83-1.01,1.37-1.31.54-.3,1.15-.45,1.84-.45,1.25,0,2.22.48,2.93,1.43.71.95,1.06,2.28,1.06,3.99,0,2.02-.53,3.57-1.58,4.65-1.05,1.08-2.55,1.62-4.5,1.62-.24,0-.61-.01-1.1-.04v4.43h-2.99V4.5Zm6.44,7.85c.47-.59.7-1.45.7-2.58,0-.92-.15-1.64-.44-2.16s-.7-.79-1.21-.79c-.46,0-.9.2-1.33.59s-.82.96-1.16,1.69v3.93c.49.13.95.19,1.4.19.9,0,1.59-.29,2.05-.88Z"/><path class="cls-1" d="m92.51,4.5h3.03v1.81h.17c.42-.73.83-1.27,1.24-1.61.41-.34.92-.52,1.54-.52.26,0,.47.03.64.09l-.32,3.27c-.37-.1-.67-.15-.9-.15-.33,0-.62.06-.87.19s-.47.3-.67.52c-.19.22-.47.54-.83.99v6.49h-3.03V4.5Z"/><path class="cls-1" d="m102.8,15.16c-.85-.49-1.52-1.17-1.99-2.05-.47-.88-.71-1.9-.71-3.06s.23-2.18.7-3.06c.47-.88,1.12-1.57,1.98-2.05.85-.49,1.84-.73,2.96-.73s2.1.24,2.96.72,1.51,1.16,1.98,2.03c.46.87.7,1.88.7,3.03s-.23,2.19-.7,3.08c-.47.9-1.13,1.59-1.98,2.09-.85.49-1.83.74-2.93.74s-2.1-.24-2.96-.73Zm4.79-2.78c.47-.59.7-1.38.7-2.35s-.23-1.75-.7-2.33c-.47-.58-1.09-.87-1.86-.87s-1.39.29-1.86.87c-.47.58-.7,1.36-.7,2.33s.23,1.76.7,2.35,1.09.89,1.86.89,1.39-.3,1.86-.89Z"/><path class="cls-1" d="m114.63,14.8c-.67-.72-1.01-1.7-1.01-2.95v-7.35h3.03v6.86c0,.59.14,1.04.43,1.37.29.32.67.48,1.16.48s.96-.16,1.41-.47c.45-.32.83-.74,1.13-1.27v-6.97h3.03v11.07h-3.03v-1.46c-.42.56-.89.99-1.43,1.3-.54.31-1.19.46-1.95.46-1.18,0-2.1-.36-2.77-1.08Z"/><path class="cls-1" d="m128.27,15.11c-.57-.52-.85-1.27-.85-2.23v-5.78h-1.72v-2.6h1.72v-2.37c1.02-.17,2.02-.3,3.01-.39v2.75h2.79v2.6h-2.79v5.22c0,.3.09.53.27.69.18.16.43.24.76.24.4,0,.86-.09,1.38-.28l.67,2.28c-.92.43-1.86.64-2.84.64-1.03,0-1.83-.26-2.4-.78Z"/></g></svg>