<svg width="60" height="81" viewBox="0 0 60 81" fill="none" xmlns="http://www.w3.org/2000/svg">
<path d="M17.66 19.3699C17.66 19.3699 23.5 16.1699 25.89 16.1699C28.28 16.1699 31.44 17.7699 31.44 17.7699C31.44 17.7699 35.62 15.0499 38.18 16.1699C40.74 17.2899 45.13 20.2299 45.13 20.2299C34.09 57.2699 25.05 54.7299 17.66 19.3699Z" fill="#E63A11" stroke="#991915" stroke-width="0.94" stroke-miterlimit="10"/>
<path d="M26.48 27.6401C26.48 27.6401 22.06 20.0101 17.66 19.3701C9.91002 18.5401 4.09001 23.1201 1.54001 27.6401C-1.00999 32.1601 8.58002 69.7301 8.58002 69.7301C12.35 74.3601 17.42 75.6301 22.86 75.9201L26.47 27.6401H26.48Z" fill="#E63A11" stroke="#991915" stroke-width="0.94" stroke-miterlimit="10"/>
<path d="M33.79 28.6001C33.79 28.6001 38.21 20.9701 42.61 20.3301C50.36 19.5001 56.18 24.0801 58.73 28.6001C61.28 33.1201 51.69 70.6901 51.69 70.6901C47.92 75.3201 42.85 76.5901 37.41 76.8801L33.8 28.6001H33.79Z" fill="#E63A11" stroke="#991915" stroke-width="0.94" stroke-miterlimit="10"/>
<path d="M33.79 28.5999C29.54 16.5099 32.62 4.57989 36.34 2.35989L31.24 1.16992C26.78 6.94992 26.48 28.3399 26.48 27.6399C18.85 37.0199 40.67 35.3299 33.79 28.5999Z" fill="#73B73D" stroke="#395C26" stroke-width="0.94" stroke-miterlimit="10"/>
<path d="M8.88 61.8899C4.97 51.1799 -2.31 19.2699 13.8 23.6799C17.23 25.1599 12.12 26.1599 11.34 27.1799C6.76999 33.2799 11.08 61.8899 8.88 61.8899Z" fill="#EC6536"/>
<path d="M43.65 23.6901C50.96 18.5301 63.71 30.5201 52.32 50.8701C51.74 51.9101 50.98 51.6101 51.08 51.0301C55.6 37.6801 50.64 23.7301 45.13 25.2101C43.65 25.6101 42.85 24.2101 43.65 23.6901Z" fill="#EC6536"/>
<path d="M19.43 78.1999C20.23 81.1699 41.81 81.1499 42.45 78.1999C42.45 78.1999 54.28 34.3999 48.84 29.7599C43.4 25.1199 37.73 27.7699 31.82 29.7599C26.08 28.0899 18.63 25.7599 14.8 29.7599C10.97 33.7599 19.44 78.1999 19.44 78.1999H19.43Z" fill="#E63A11" stroke="#991915" stroke-width="0.94" stroke-miterlimit="10"/>
<path d="M26.75 30.5001C11.16 22.1301 15.9 57.0401 19.15 55.7001C20.87 55.7401 20.71 50.1801 20.71 50.1801C18.01 31.1201 32.04 34.8901 26.75 30.5001Z" fill="#EC6536"/>
<path d="M31.2 73.72C30.24 78.17 33.99 77.59 38.77 75.92C43.88 74.01 42.61 67.08 42.06 61.56C40.75 59.51 38.77 67.96 35.7 69.89C34.11 70.88 31.48 72.06 31.21 73.72H31.2Z" fill="#EC6536"/>
</svg>
