<svg width="67" height="73" viewBox="0 0 67 73" fill="none" xmlns="http://www.w3.org/2000/svg">
<path d="M34.57 0.879991C35.01 -0.400009 30.2 3.38999 30.2 3.38999L30.52 23.63L36.1 22.58C36.1 22.58 30.35 13.04 34.57 0.889985V0.879991Z" fill="#599832" stroke="#0E7132" stroke-width="0.87" stroke-miterlimit="10"/>
<path d="M24.3699 21.3201H20.4299C16.0117 21.3201 12.4299 24.9018 12.4299 29.3201V59.1301C12.4299 63.5483 16.0117 67.1301 20.4299 67.1301H24.3699C28.7882 67.1301 32.3699 63.5483 32.3699 59.1301V29.3201C32.3699 24.9018 28.7882 21.3201 24.3699 21.3201Z" fill="#E07A2F" stroke="#965D14" stroke-miterlimit="10"/>
<path d="M44.82 20.72H40.88C36.4617 20.72 32.88 24.3017 32.88 28.72V58.53C32.88 62.9482 36.4617 66.53 40.88 66.53H44.82C49.2383 66.53 52.82 62.9482 52.82 58.53V28.72C52.82 24.3017 49.2383 20.72 44.82 20.72Z" fill="#E07A2F" stroke="#965D14" stroke-miterlimit="10"/>
<path d="M57.68 25.75H53.74C49.3217 25.75 45.74 29.3317 45.74 33.75V59.39C45.74 63.8083 49.3217 67.39 53.74 67.39H57.68C62.0983 67.39 65.68 63.8083 65.68 59.39V33.75C65.68 29.3317 62.0983 25.75 57.68 25.75Z" fill="#E07A2F" stroke="#965D14" stroke-miterlimit="10"/>
<path d="M12.55 25.49H8.60999C4.19171 25.49 0.609985 29.0717 0.609985 33.49V59.13C0.609985 63.5483 4.19171 67.13 8.60999 67.13H12.55C16.9683 67.13 20.55 63.5483 20.55 59.13V33.49C20.55 29.0717 16.9683 25.49 12.55 25.49Z" fill="#E07A2F" stroke="#965D14" stroke-miterlimit="10"/>
<path d="M50.56 20.73H46.62C42.2017 20.73 38.62 24.3117 38.62 28.73V61.14C38.62 65.5583 42.2017 69.14 46.62 69.14H50.56C54.9783 69.14 58.56 65.5583 58.56 61.14V28.73C58.56 24.3117 54.9783 20.73 50.56 20.73Z" fill="#E07A2F" stroke="#965D14" stroke-miterlimit="10"/>
<path d="M19.22 23.3201H15.28C10.8618 23.3201 7.28003 26.9018 7.28003 31.3201V61.1301C7.28003 65.5483 10.8618 69.1301 15.28 69.1301H19.22C23.6383 69.1301 27.22 65.5483 27.22 61.1301V31.3201C27.22 26.9018 23.6383 23.3201 19.22 23.3201Z" fill="#E07A2F" stroke="#965D14" stroke-miterlimit="10"/>
<path d="M35.69 20.73H30.08C23.7619 20.73 18.64 25.8518 18.64 32.17V60.45C18.64 66.7681 23.7619 71.89 30.08 71.89H35.69C42.0082 71.89 47.13 66.7681 47.13 60.45V32.17C47.13 25.8518 42.0082 20.73 35.69 20.73Z" fill="#E07A2F" stroke="#965D14" stroke-miterlimit="10"/>
</svg>
