<svg width="73" height="61" viewBox="0 0 73 61" fill="none" xmlns="http://www.w3.org/2000/svg">
<path d="M70.38 15.8501C68.11 15.6401 65.97 15.8501 65.49 16.4601L67.64 21.3701L70.37 15.8501H70.38Z" fill="#A6CF94" stroke="#496048" stroke-miterlimit="10"/>
<path d="M67.65 21.3699C67.65 21.3699 65.08 14.2099 62.69 12.6999C60.3 11.1899 56.09 10.9699 53.86 9.80988C51.63 8.64988 47.05 5.62988 45.03 5.62988C43.01 5.62988 40.73 11.0399 40.73 11.0399C66.43 41.7299 68.69 34.2399 67.66 21.3699H67.65Z" fill="#A6CF94" stroke="#496048" stroke-miterlimit="10"/>
<path d="M67.19 42.2001C67.19 42.2001 71.14 39.0401 71.89 37.1201C72.77 36.0401 67.64 26.3301 70.38 15.8501C68.87 15.8501 66.64 25.0201 66.64 25.0201C56.82 35.6501 59.08 40.3601 67.19 42.2001Z" fill="#A6CF94" stroke="#496048" stroke-miterlimit="10"/>
<path d="M24.45 1.59009C28.33 3.97009 36.61 9.73009 37.8 12.7801C35.1 19.8401 28.96 15.8201 21.78 8.49009L24.45 1.59009Z" fill="#A6CF94" stroke="#496048" stroke-miterlimit="10"/>
<path d="M2.19 16.44C5.23 16.19 8.06 17.59 10.81 19.64L8.92 24.72L2.19 16.44Z" fill="#A6CF94" stroke="#496048" stroke-miterlimit="10"/>
<path d="M8.92001 24.7201C8.03001 21.8401 9.69001 20.6401 10.81 19.6401C12.86 17.3901 12.69 14.7601 11.42 11.9401C9.75001 9.82009 21.2 7.10009 24.44 1.59009C25.24 2.49009 25.14 3.33009 24.44 4.11009C22.9 5.73009 22.06 7.17009 21.77 8.48009C26.88 31.0801 24.29 41.8501 11.63 37.1101C4.56001 32.1401 2.58001 27.8601 8.92001 24.7101V24.7201Z" fill="#A6CF94" stroke="#496048" stroke-miterlimit="10"/>
<path d="M16.94 53.9699C13.9 53.6299 11.45 51.5999 9.59001 47.9099C9.59001 47.9099 10.26 44.0699 9.59001 40.9399C8.92001 37.8099 2.96002 34.1099 2.19002 30.9099C1.42002 27.7099 5.09002 25.3699 5.56002 23.7599C6.03002 22.1499 3.79002 18.8499 2.19002 16.4399C5.18002 17.7299 9.80002 23.2999 8.92002 24.7199C6.10002 28.5599 7.95002 33.1199 11.63 37.1199C30.94 40.5599 31.64 46.3099 16.94 53.9599V53.9699Z" fill="#A6CF94" stroke="#496048" stroke-miterlimit="10"/>
<path d="M45.57 13.6901C47.81 11.0301 50.27 10.2601 52.84 10.4301C54.84 10.5901 54.97 13.2101 57.13 14.3401C57.13 14.3401 60.79 14.3401 61.93 14.8401C63.07 15.3401 61.55 16.7301 61.93 18.1201C62.31 19.5101 66.26 22.2301 66.26 22.2301C51.62 46.3901 38.74 39.4301 45.58 13.6801L45.57 13.6901Z" fill="#A6CF94" stroke="#496048" stroke-miterlimit="10"/>
<path d="M35.17 14.5899C35.17 14.5899 40.84 10.4299 42.48 10.4299C44.12 10.4299 46.02 14.5899 46.02 14.5899C46.53 16.0899 47.72 17.9599 45.64 18.6299C43.24 20.0199 45.01 21.4099 46.02 22.7899C46.02 23.9299 43.87 24.4299 44 25.9399C44.13 27.4499 47.28 27.9599 47.28 29.5999C47.28 31.2399 44.34 35.2799 42.41 39.0099C27.27 31.9499 15.92 24.5699 35.17 14.5899Z" fill="#A6CF94" stroke="#496048" stroke-miterlimit="10"/>
<path d="M19.02 56.32C19.02 56.32 24.74 59.64 27.94 59.69C31.14 59.74 38.71 59.69 38.71 59.69C36.94 57.93 36.72 56.52 37.36 55.32C37.87 53.24 40.22 55.15 40.22 52.8C40.22 50.45 36.85 48.26 36.85 48.26C34.16 46.36 35.27 44.23 40.22 41.87C44.96 40.2 41.6 36.57 36.18 32.45C35.08 30.66 37.86 28.41 38.03 26.73C37.5 23.97 35.4 22.7 31.64 23.03C26.96 21.35 35.17 18.15 35.17 14.62C35.17 11.09 29.62 7.77997 24.91 7.71997C20.5 8.15997 19.23 10.27 19.02 12.94C19.02 12.94 19.52 16.64 19.02 17.82C18.52 19 14.65 20.01 14.65 20.01C12.06 21.62 11.39 24.17 11.45 27.08C11.43 29.02 12.81 30.97 11.45 35.16C11.28 37 12.07 39.22 14.48 42.06C16.78 43.79 17.2 45.74 16.84 47.78C15.1 51.7 16.57 54.24 19.03 56.36L19.02 56.32Z" fill="#A6CF94" stroke="#496048" stroke-miterlimit="10"/>
<path d="M38.71 59.6901C44.92 60.0501 46.43 58.1501 49.48 57.0001C55 56.7901 59.02 55.5901 61.93 53.6301C64.13 52.1501 61.55 49.3401 61.93 47.2401C62.31 45.1401 67.65 43.3301 67.65 41.0101C67.65 38.6901 65.29 33.6901 65.29 33.6901C64.54 31.2401 65.28 28.2501 66.64 25.0201C67.19 18.9601 63.73 23.5301 59.91 29.0601C56.84 30.0901 54.36 29.4401 53.18 29.5601C52 29.6801 51.67 34.6901 49.98 35.6201C48.29 36.5501 47.46 34.3201 44.6 35.1201C41.74 35.9201 43.64 40.2601 40.23 41.8501C35.52 44.2101 34.4 46.3401 36.86 48.2401C39.22 50.0601 40.2 51.5401 40.23 52.7801C40.42 53.8601 33.67 54.2701 38.72 59.6801L38.71 59.6901Z" fill="#A6CF94" stroke="#496048" stroke-miterlimit="10"/>
<path d="M33.66 59.6999C21.09 46.7899 17.71 33.5499 25.01 19.8999L33.66 59.6999Z" fill="#A6CF94"/>
<path d="M33.66 59.6999C21.09 46.7899 17.71 33.5499 25.01 19.8999" stroke="#496048" stroke-miterlimit="10"/>
<path d="M21.21 35.2001C18.52 34.0601 16.72 31.68 15.83 28.05L21.21 35.2001Z" fill="#A6CF94"/>
<path d="M21.21 35.2001C18.52 34.0601 16.72 31.68 15.83 28.05" stroke="#496048" stroke-miterlimit="10"/>
<path d="M21.9 39.8099C23.55 35.5199 26.23 33.6199 29.78 33.6999L21.9 39.8099Z" fill="#A6CF94"/>
<path d="M21.9 39.8099C23.55 35.5199 26.23 33.6199 29.78 33.6999" stroke="#496048" stroke-miterlimit="10"/>
<path d="M26.59 50.9401C24.23 50.7701 21.88 49.1401 19.52 46.0601L26.59 50.9401Z" fill="#A6CF94"/>
<path d="M26.59 50.9401C24.23 50.7701 21.88 49.1401 19.52 46.0601" stroke="#496048" stroke-miterlimit="10"/>
<path d="M29.78 55.3499C28.27 50.9399 30.1 47.0399 31.47 45.8899L29.78 55.3499Z" fill="#A6CF94"/>
<path d="M29.78 55.3499C28.27 50.9399 30.1 47.0399 31.47 45.8899" stroke="#496048" stroke-miterlimit="10"/>
<path d="M42.49 59.5899C59.24 49.9299 63.18 41.3299 62.1 33.1599L42.49 59.5899Z" fill="#A6CF94"/>
<path d="M42.49 59.5899C59.24 49.9299 63.18 41.3299 62.1 33.1599" stroke="#496048" stroke-miterlimit="10"/>
<path d="M52.37 52.8701C53.38 50.2501 53.72 47.8101 51.61 46.0601L52.37 52.8701Z" fill="#A6CF94"/>
<path d="M52.37 52.8701C53.38 50.2501 53.72 47.8101 51.61 46.0601" stroke="#496048" stroke-miterlimit="10"/>
<path d="M58.59 46.37C60.88 46 62.86 45.31 64.45 44.54L58.59 46.37Z" fill="#A6CF94"/>
<path d="M58.59 46.37C60.88 46 62.86 45.31 64.45 44.54" stroke="#496048" stroke-miterlimit="10"/>
<path d="M61.52 40.9399C61.26 38.6499 60.99 36.39 60.15 35.2L61.52 40.9399Z" fill="#A6CF94"/>
<path d="M61.52 40.9399C61.26 38.6499 60.99 36.39 60.15 35.2" stroke="#496048" stroke-miterlimit="10"/>
<path d="M51.28 33.6999C51.53 29.4199 51.44 25.3899 49.3 22.9199L51.28 33.6999Z" fill="#A6CF94"/>
<path d="M51.28 33.6999C51.53 29.4199 51.44 25.3899 49.3 22.9199" stroke="#496048" stroke-miterlimit="10"/>
<path d="M52.37 30.54C55.12 24.88 53.46 19.93 50.29 15.23L52.37 30.54Z" fill="#A6CF94"/>
<path d="M52.37 30.54C55.12 24.88 53.46 19.93 50.29 15.23" stroke="#496048" stroke-miterlimit="10"/>
<path d="M53.77 22.92C57.12 21.28 58.17 19.45 57.89 17.49L53.77 22.92Z" fill="#A6CF94"/>
<path d="M53.77 22.92C57.12 21.28 58.17 19.45 57.89 17.49" stroke="#496048" stroke-miterlimit="10"/>
</svg>
