<svg width="70" height="61" viewBox="0 0 70 61" fill="none" xmlns="http://www.w3.org/2000/svg">
<path d="M68.42 32.9701C69.17 48.6301 54.89 59.1601 36.37 60.0501C17.85 60.9401 2.08999 51.84 1.33999 36.1801C0.589995 20.5201 15.21 11.5601 33.74 10.6801C52.26 9.79005 67.67 17.3101 68.42 32.9801V32.9701Z" fill="#E5221C" stroke="#8D1812" stroke-miterlimit="10"/>
<path d="M23.85 20.6101C23.85 20.6101 17.63 26.1201 27.66 37.1501C25.51 24.7501 33.57 20.3201 33.57 20.3201C33.57 20.3201 34.78 28.0701 38.37 31.9001C41.13 27.3501 40.56 19.8501 40.56 19.8501C40.56 19.8501 48.8 26.4901 65.63 24.7601C45.75 22.1601 42.53 16.8901 42.53 16.8901C42.53 16.8901 49.01 11.1401 62.95 12.5001C47.55 7.28008 38.6 15.0301 38.6 15.0301C38.6 15.0301 38.38 11.7901 43.97 4.08008C31.07 12.9701 32.69 14.9901 32.69 14.9901C32.69 14.9901 27.5 7.17007 6.11996 11.2601C28.54 13.2601 26.78 16.2901 26.78 16.2901C26.78 16.2901 17.29 19.7801 4.20996 22.1501C13.34 25.3501 23.86 20.6101 23.86 20.6101H23.85Z" fill="#78B942" stroke="#0E7132" stroke-width="0.87" stroke-miterlimit="10"/>
<path d="M36.06 0.960017C36.42 0.0400174 32.55 2.76001 32.55 2.76001L32.81 17.32L37.29 16.56C37.29 16.56 32.67 9.70002 36.06 0.960017Z" fill="#599832" stroke="#0E7132" stroke-width="0.87" stroke-miterlimit="10"/>
</svg>
